# xmcd CD database file
#
# Track frame offsets:
#	150
#	16889
#	48312
#	69857
#	87922
#	105879
#	124812
#	142625
#	159003
#	177406
#	192011
#	213386
#	235871
#	256458
#	277094
#	294544
#	322869
#	345014
#
# Disc length: 4792 seconds
#
# Revision: 1
# Processed by: cddbd v1.4PL0 Copyright (c) Steve Scherf et al.
# Submitted via: CDex 1.50
#
DISCID=e612b612
DTITLE=Macy Gray - SEXoTROUbIDioMATIC - Best of
DYEAR=2003
DGENRE=Rhythmic Soul
TTITLE0=when i see you
TTITLE1=love live [Fatboy Slim feat. Macy Gray]
TTITLE2=relating to a psychopath
TTITLE3=a moment to myself
TTITLE4=i try
TTITLE5=she ain't right for you
TTITLE6=sex-o-matic venus freak
TTITLE7=freak like me
TTITLE8=speechless
TTITLE9=screamin'
TTITLE10=sexual revolution
TTITLE11=i've commited murder
TTITLE12=every now and then
TTITLE13=come together
TTITLE14=sweet baby
TTITLE15=demons (compilation edit) [Fatboy Slim feat. Macy Gray]
TTITLE16=my nutmeg phantasy
TTITLE17=why didn't you call me
EXTD=YEAR: 2003
EXTT0=
EXTT1=
EXTT2=
EXTT3=
EXTT4=
EXTT5=
EXTT6=
EXTT7=
EXTT8=
EXTT9=
EXTT10=
EXTT11=
EXTT12=
EXTT13=
EXTT14=
EXTT15=
EXTT16=
EXTT17=
PLAYORDER=
